<mxfile host="app.diagrams.net" modified="2024-04-21T01:23:51.683Z" agent="Mozilla/5.0 (Windows NT 10.0; Win64; x64) AppleWebKit/537.36 (KHTML, like Gecko) Chrome/123.0.0.0 Safari/537.36" etag="qMQAl6ETcSyInFg5gnqa" version="24.2.7" type="github">
  <diagram name="Page-1" id="2YBvvXClWsGukQMizWep">
    <mxGraphModel dx="2037" dy="763" grid="1" gridSize="10" guides="1" tooltips="1" connect="1" arrows="1" fold="1" page="1" pageScale="1" pageWidth="850" pageHeight="1100" math="0" shadow="0">
      <root>
        <mxCell id="0" />
        <mxCell id="1" parent="0" />
        <mxCell id="aM9ryv3xv72pqoxQDRHE-1" value="Sistema" style="shape=umlLifeline;perimeter=lifelinePerimeter;whiteSpace=wrap;html=1;container=0;dropTarget=0;collapsible=0;recursiveResize=0;outlineConnect=0;portConstraint=eastwest;newEdgeStyle={&quot;edgeStyle&quot;:&quot;elbowEdgeStyle&quot;,&quot;elbow&quot;:&quot;vertical&quot;,&quot;curved&quot;:0,&quot;rounded&quot;:0};" parent="1" vertex="1">
          <mxGeometry x="310" y="30" width="100" height="650" as="geometry" />
        </mxCell>
        <mxCell id="aM9ryv3xv72pqoxQDRHE-2" value="" style="html=1;points=[];perimeter=orthogonalPerimeter;outlineConnect=0;targetShapes=umlLifeline;portConstraint=eastwest;newEdgeStyle={&quot;edgeStyle&quot;:&quot;elbowEdgeStyle&quot;,&quot;elbow&quot;:&quot;vertical&quot;,&quot;curved&quot;:0,&quot;rounded&quot;:0};" parent="aM9ryv3xv72pqoxQDRHE-1" vertex="1">
          <mxGeometry x="45" y="220" width="10" height="400" as="geometry" />
        </mxCell>
        <mxCell id="HXn4oloDZbiPmxM5SLHt-28" value="" style="edgeStyle=none;orthogonalLoop=1;jettySize=auto;html=1;rounded=0;" edge="1" parent="aM9ryv3xv72pqoxQDRHE-1">
          <mxGeometry width="100" relative="1" as="geometry">
            <mxPoint x="55" y="290" as="sourcePoint" />
            <mxPoint x="55" y="320" as="targetPoint" />
            <Array as="points">
              <mxPoint x="100" y="290" />
              <mxPoint x="100" y="320" />
            </Array>
          </mxGeometry>
        </mxCell>
        <mxCell id="HXn4oloDZbiPmxM5SLHt-41" value="" style="html=1;points=[];perimeter=orthogonalPerimeter;outlineConnect=0;targetShapes=umlLifeline;portConstraint=eastwest;newEdgeStyle={&quot;edgeStyle&quot;:&quot;elbowEdgeStyle&quot;,&quot;elbow&quot;:&quot;vertical&quot;,&quot;curved&quot;:0,&quot;rounded&quot;:0};" vertex="1" parent="aM9ryv3xv72pqoxQDRHE-1">
          <mxGeometry x="45" y="120" width="10" height="60" as="geometry" />
        </mxCell>
        <mxCell id="HXn4oloDZbiPmxM5SLHt-22" value="" style="edgeStyle=none;orthogonalLoop=1;jettySize=auto;html=1;rounded=0;" edge="1" parent="aM9ryv3xv72pqoxQDRHE-1" source="HXn4oloDZbiPmxM5SLHt-41" target="HXn4oloDZbiPmxM5SLHt-41">
          <mxGeometry width="100" relative="1" as="geometry">
            <mxPoint x="50" y="130" as="sourcePoint" />
            <mxPoint x="50" y="160" as="targetPoint" />
            <Array as="points">
              <mxPoint x="100.19" y="130" />
              <mxPoint x="100.19" y="160" />
            </Array>
          </mxGeometry>
        </mxCell>
        <mxCell id="HXn4oloDZbiPmxM5SLHt-45" value="" style="edgeStyle=none;orthogonalLoop=1;jettySize=auto;html=1;rounded=0;" edge="1" parent="aM9ryv3xv72pqoxQDRHE-1" source="aM9ryv3xv72pqoxQDRHE-2" target="aM9ryv3xv72pqoxQDRHE-2">
          <mxGeometry width="100" relative="1" as="geometry">
            <mxPoint x="53.5" y="550" as="sourcePoint" />
            <mxPoint x="53.5" y="580" as="targetPoint" />
            <Array as="points">
              <mxPoint x="98.69" y="550" />
              <mxPoint x="98.69" y="580" />
            </Array>
          </mxGeometry>
        </mxCell>
        <mxCell id="HXn4oloDZbiPmxM5SLHt-43" value="" style="edgeStyle=none;orthogonalLoop=1;jettySize=auto;html=1;rounded=0;" edge="1" parent="aM9ryv3xv72pqoxQDRHE-1" source="aM9ryv3xv72pqoxQDRHE-2" target="aM9ryv3xv72pqoxQDRHE-2">
          <mxGeometry width="100" relative="1" as="geometry">
            <mxPoint x="55" y="480" as="sourcePoint" />
            <mxPoint x="55" y="510" as="targetPoint" />
            <Array as="points">
              <mxPoint x="100.19" y="480" />
              <mxPoint x="100.19" y="510" />
            </Array>
          </mxGeometry>
        </mxCell>
        <mxCell id="HXn4oloDZbiPmxM5SLHt-1" value="Usuário público" style="shape=umlActor;verticalLabelPosition=bottom;verticalAlign=top;html=1;outlineConnect=0;" vertex="1" parent="1">
          <mxGeometry x="120" y="30" width="30" height="60" as="geometry" />
        </mxCell>
        <mxCell id="HXn4oloDZbiPmxM5SLHt-3" value="" style="endArrow=none;dashed=1;html=1;rounded=0;" edge="1" parent="1" source="HXn4oloDZbiPmxM5SLHt-33" target="HXn4oloDZbiPmxM5SLHt-1">
          <mxGeometry width="50" height="50" relative="1" as="geometry">
            <mxPoint x="135" y="420" as="sourcePoint" />
            <mxPoint x="130" y="170" as="targetPoint" />
          </mxGeometry>
        </mxCell>
        <mxCell id="HXn4oloDZbiPmxM5SLHt-6" value="Usuário Administrador" style="shape=umlActor;verticalLabelPosition=bottom;verticalAlign=top;html=1;outlineConnect=0;" vertex="1" parent="1">
          <mxGeometry x="540" y="30" width="30" height="60" as="geometry" />
        </mxCell>
        <mxCell id="HXn4oloDZbiPmxM5SLHt-7" value="" style="endArrow=none;dashed=1;html=1;rounded=0;" edge="1" parent="1" target="HXn4oloDZbiPmxM5SLHt-6" source="HXn4oloDZbiPmxM5SLHt-35">
          <mxGeometry width="50" height="50" relative="1" as="geometry">
            <mxPoint x="555" y="420" as="sourcePoint" />
            <mxPoint x="550" y="170" as="targetPoint" />
          </mxGeometry>
        </mxCell>
        <mxCell id="HXn4oloDZbiPmxM5SLHt-20" value="" style="edgeStyle=none;orthogonalLoop=1;jettySize=auto;html=1;rounded=0;" edge="1" parent="1" target="HXn4oloDZbiPmxM5SLHt-41">
          <mxGeometry width="100" relative="1" as="geometry">
            <mxPoint x="140" y="150" as="sourcePoint" />
            <mxPoint x="260" y="150" as="targetPoint" />
            <Array as="points" />
          </mxGeometry>
        </mxCell>
        <mxCell id="HXn4oloDZbiPmxM5SLHt-21" value="Informar ponto de foco" style="text;html=1;align=center;verticalAlign=middle;resizable=0;points=[];autosize=1;strokeColor=none;fillColor=none;" vertex="1" parent="1">
          <mxGeometry x="180" y="120" width="140" height="30" as="geometry" />
        </mxCell>
        <mxCell id="HXn4oloDZbiPmxM5SLHt-23" value="Gravar ponto como pendente" style="text;html=1;align=center;verticalAlign=middle;whiteSpace=wrap;rounded=0;" vertex="1" parent="1">
          <mxGeometry x="373" y="130" width="105" height="30" as="geometry" />
        </mxCell>
        <mxCell id="HXn4oloDZbiPmxM5SLHt-26" value="" style="endArrow=classic;html=1;rounded=0;" edge="1" parent="1">
          <mxGeometry width="50" height="50" relative="1" as="geometry">
            <mxPoint x="560" y="260" as="sourcePoint" />
            <mxPoint x="365" y="260" as="targetPoint" />
          </mxGeometry>
        </mxCell>
        <mxCell id="HXn4oloDZbiPmxM5SLHt-27" value="Aprovar ponto" style="text;html=1;align=center;verticalAlign=middle;resizable=0;points=[];autosize=1;strokeColor=none;fillColor=none;" vertex="1" parent="1">
          <mxGeometry x="400" y="228" width="100" height="30" as="geometry" />
        </mxCell>
        <mxCell id="HXn4oloDZbiPmxM5SLHt-31" value="Consultar detalhes endereço" style="text;html=1;align=center;verticalAlign=middle;resizable=0;points=[];autosize=1;strokeColor=none;fillColor=none;" vertex="1" parent="1">
          <mxGeometry x="360" y="290" width="180" height="30" as="geometry" />
        </mxCell>
        <mxCell id="HXn4oloDZbiPmxM5SLHt-34" value="" style="endArrow=none;dashed=1;html=1;rounded=0;" edge="1" parent="1" target="HXn4oloDZbiPmxM5SLHt-33">
          <mxGeometry width="50" height="50" relative="1" as="geometry">
            <mxPoint x="135" y="680" as="sourcePoint" />
            <mxPoint x="135" y="90" as="targetPoint" />
          </mxGeometry>
        </mxCell>
        <mxCell id="HXn4oloDZbiPmxM5SLHt-33" value="" style="html=1;points=[];perimeter=orthogonalPerimeter;outlineConnect=0;targetShapes=umlLifeline;portConstraint=eastwest;newEdgeStyle={&quot;edgeStyle&quot;:&quot;elbowEdgeStyle&quot;,&quot;elbow&quot;:&quot;vertical&quot;,&quot;curved&quot;:0,&quot;rounded&quot;:0};" vertex="1" parent="1">
          <mxGeometry x="130" y="150" width="10" height="20" as="geometry" />
        </mxCell>
        <mxCell id="HXn4oloDZbiPmxM5SLHt-36" value="" style="endArrow=none;dashed=1;html=1;rounded=0;" edge="1" parent="1" target="HXn4oloDZbiPmxM5SLHt-35">
          <mxGeometry width="50" height="50" relative="1" as="geometry">
            <mxPoint x="555" y="680" as="sourcePoint" />
            <mxPoint x="555" y="90" as="targetPoint" />
          </mxGeometry>
        </mxCell>
        <mxCell id="HXn4oloDZbiPmxM5SLHt-35" value="" style="html=1;points=[];perimeter=orthogonalPerimeter;outlineConnect=0;targetShapes=umlLifeline;portConstraint=eastwest;newEdgeStyle={&quot;edgeStyle&quot;:&quot;elbowEdgeStyle&quot;,&quot;elbow&quot;:&quot;vertical&quot;,&quot;curved&quot;:0,&quot;rounded&quot;:0};" vertex="1" parent="1">
          <mxGeometry x="550" y="258" width="10" height="222" as="geometry" />
        </mxCell>
        <mxCell id="HXn4oloDZbiPmxM5SLHt-37" value="" style="edgeStyle=none;orthogonalLoop=1;jettySize=auto;html=1;rounded=0;dashed=1;" edge="1" parent="1">
          <mxGeometry width="100" relative="1" as="geometry">
            <mxPoint x="365" y="400" as="sourcePoint" />
            <mxPoint x="550" y="400" as="targetPoint" />
            <Array as="points" />
          </mxGeometry>
        </mxCell>
        <mxCell id="HXn4oloDZbiPmxM5SLHt-38" value="&amp;lt;&amp;lt;detalhes do endereço&amp;gt;&amp;gt;" style="text;html=1;align=center;verticalAlign=middle;resizable=0;points=[];autosize=1;strokeColor=none;fillColor=none;" vertex="1" parent="1">
          <mxGeometry x="370" y="370" width="170" height="30" as="geometry" />
        </mxCell>
        <mxCell id="HXn4oloDZbiPmxM5SLHt-39" value="" style="endArrow=classic;html=1;rounded=0;" edge="1" parent="1">
          <mxGeometry width="50" height="50" relative="1" as="geometry">
            <mxPoint x="542.5" y="460" as="sourcePoint" />
            <mxPoint x="357.5" y="460" as="targetPoint" />
          </mxGeometry>
        </mxCell>
        <mxCell id="HXn4oloDZbiPmxM5SLHt-40" value="Confirmar endereço" style="text;html=1;align=center;verticalAlign=middle;resizable=0;points=[];autosize=1;strokeColor=none;fillColor=none;" vertex="1" parent="1">
          <mxGeometry x="385" y="430" width="130" height="30" as="geometry" />
        </mxCell>
        <mxCell id="HXn4oloDZbiPmxM5SLHt-44" value="Atualizar status e endereço ponto" style="text;html=1;align=center;verticalAlign=middle;whiteSpace=wrap;rounded=0;" vertex="1" parent="1">
          <mxGeometry x="373" y="480" width="105" height="30" as="geometry" />
        </mxCell>
        <mxCell id="HXn4oloDZbiPmxM5SLHt-46" value="Atualizar gráficos e estatísticas" style="text;html=1;align=center;verticalAlign=middle;whiteSpace=wrap;rounded=0;" vertex="1" parent="1">
          <mxGeometry x="371.5" y="550" width="128.5" height="30" as="geometry" />
        </mxCell>
      </root>
    </mxGraphModel>
  </diagram>
</mxfile>
